<?xml version="1.0" encoding="utf-8"?>
<!-- Generator: Adobe Illustrator 24.3.0, SVG Export Plug-In . SVG Version: 6.00 Build 0)  -->
<svg version="1.1" id="Layer_1" xmlns="http://www.w3.org/2000/svg" xmlns:xlink="http://www.w3.org/1999/xlink" x="0px" y="0px"
	 viewBox="0 0 76.05 76.5" style="enable-background:new 0 0 76.05 76.5;" xml:space="preserve">
<style type="text/css">
	.st0{fill:#FFFFFF;}
	.st1{fill:url(#Elipse_28_1_);}
	.st2{fill:#F70000;}
	.st3{fill:url(#Trazado_523_1_);}
	.st4{fill:#CCCCCC;}
	.st5{fill:url(#Trazado_7346_1_);}
</style>
<g id="Grupo_1631" transform="translate(117.723 -29.333)">
	<g id="Grupo_531" transform="translate(-117.723 29.333)">
		<g id="Grupo_528" transform="translate(0 0)">
			<circle id="Elipse_27" class="st0" cx="38.34" cy="38.01" r="23.3"/>
			
				<linearGradient id="Elipse_28_1_" gradientUnits="userSpaceOnUse" x1="-490.1595" y1="567.0627" x2="-489.5595" y2="568.1888" gradientTransform="matrix(46.602 0 0 -46.602 22865.7734 26491.6816)">
				<stop  offset="0" style="stop-color:#FFFFFF"/>
				<stop  offset="0.336" style="stop-color:#EFF1F3"/>
				<stop  offset="0.984" style="stop-color:#C8CFD6"/>
				<stop  offset="1" style="stop-color:#C7CFD6"/>
			</linearGradient>
			<circle id="Elipse_28" class="st1" cx="37.71" cy="38.49" r="23.3"/>
		</g>
		<g id="Grupo_530" transform="translate(5.806 7.506)">
			<circle id="Elipse_54" class="st2" cx="32.93" cy="30.38" r="19.84"/>
			
				<linearGradient id="Trazado_523_1_" gradientUnits="userSpaceOnUse" x1="-494.2566" y1="557.5009" x2="-493.3166" y2="559.0099" gradientTransform="matrix(39.6723 0 0 -39.672 19622.457 22177.2129)">
				<stop  offset="0" style="stop-color:#FF0000"/>
				<stop  offset="0.21" style="stop-color:#EB0000"/>
				<stop  offset="0.547" style="stop-color:#9B0000"/>
				<stop  offset="1" style="stop-color:#890000"/>
			</linearGradient>
			<path id="Trazado_523" class="st3" d="M52.23,30.79c0,10.96-8.88,19.84-19.84,19.83c-10.96,0-19.84-8.88-19.83-19.84
				c0-10.96,8.88-19.84,19.84-19.83c5.94,0,11.56,2.66,15.33,7.25C50.66,21.73,52.26,26.19,52.23,30.79z"/>
		</g>
	</g>
	<g id="Grupo_1629" transform="translate(-1307.589 -418.206)">
		<path id="Trazado_7344" class="st4" d="M1227.85,471.33c-5.83,0.01-10.55,4.73-10.56,10.56c0,5.28,8.56,16.32,9.49,17.57
			c0.34,0.46,0.49,0.73,1.07,0.73s0.72-0.27,1.07-0.73c0.93-1.24,9.49-12.29,9.49-17.57
			C1238.4,476.06,1233.68,471.34,1227.85,471.33z M1227.85,489.02c-3.97,0-7.19-3.22-7.19-7.19c0-3.97,3.22-7.19,7.19-7.2
			c3.97,0,7.19,3.22,7.19,7.19c0,0,0,0,0,0C1235.04,485.79,1231.82,489.01,1227.85,489.02L1227.85,489.02z"/>
		<path id="Trazado_7345" class="st0" d="M1228.62,470.56c-5.83,0.01-10.55,4.73-10.56,10.56c0,5.28,8.56,16.32,9.49,17.57
			c0.34,0.46,0.49,0.73,1.07,0.73s0.72-0.27,1.07-0.73c0.93-1.24,9.49-12.29,9.49-17.57
			C1239.17,475.29,1234.45,470.57,1228.62,470.56z M1228.62,488.24c-3.97,0-7.19-3.22-7.19-7.19c0-3.97,3.22-7.19,7.19-7.2
			c3.97,0,7.19,3.22,7.19,7.19c0,0,0,0,0,0C1235.81,485.02,1232.59,488.24,1228.62,488.24L1228.62,488.24z"/>
		
			<linearGradient id="Trazado_7346_1_" gradientUnits="userSpaceOnUse" x1="713.1208" y1="1008.9421" x2="712.5738" y2="1008.2621" gradientTransform="matrix(21.1121 0 0 -28.85 -13821.9404 29580.5449)">
			<stop  offset="0" style="stop-color:#D0D4D0"/>
			<stop  offset="0.282" style="stop-color:#D7DBD7"/>
			<stop  offset="0.712" style="stop-color:#ECEEEC"/>
			<stop  offset="1" style="stop-color:#FFFFFF"/>
		</linearGradient>
		<path id="Trazado_7346" class="st5" d="M1228.24,470.95c-5.83,0.01-10.55,4.73-10.56,10.56c0,5.28,8.56,16.32,9.49,17.57
			c0.34,0.46,0.49,0.73,1.07,0.73s0.72-0.27,1.07-0.73c0.93-1.24,9.49-12.29,9.49-17.57
			C1238.79,475.68,1234.06,470.96,1228.24,470.95z M1228.24,488.63c-3.97,0-7.19-3.22-7.19-7.19c0-3.97,3.22-7.19,7.19-7.2
			c3.97,0,7.19,3.22,7.19,7.19c0,0,0,0,0,0C1235.43,485.41,1232.21,488.63,1228.24,488.63z"/>
	</g>
</g>
</svg>
