<?xml version="1.0" encoding="utf-8"?>
<!-- Generator: Adobe Illustrator 24.3.0, SVG Export Plug-In . SVG Version: 6.00 Build 0)  -->
<svg version="1.1" id="Layer_1" xmlns="http://www.w3.org/2000/svg" xmlns:xlink="http://www.w3.org/1999/xlink" x="0px" y="0px"
	 viewBox="0 0 72 72" style="enable-background:new 0 0 72 72;" xml:space="preserve">
<style type="text/css">
	.st0{opacity:0.3;}
	.st1{opacity:0.2;}
	.st2{fill:#353535;}
	.st3{opacity:0.56;fill:url(#Trazado_5623_1_);enable-background:new    ;}
	.st4{opacity:0.2;fill:url(#Trazado_5624_1_);enable-background:new    ;}
	.st5{opacity:0.14;fill:url(#Trazado_5625_1_);enable-background:new    ;}
	.st6{fill:#111111;}
	.st7{fill:#DA291C;}
</style>
<g id="Grupo_998" transform="translate(-1074.17 -332.322)">
	<g id="Grupo_996" transform="translate(1075.405 335.282)" class="st0">
		<path id="Trazado_5620" d="M61.41,34.52c0,14.71-11.93,26.64-26.64,26.64c-14.71,0-26.64-11.93-26.64-26.64
			c0-14.71,11.93-26.64,26.64-26.64C49.48,7.88,61.41,19.8,61.41,34.52C61.41,34.52,61.41,34.52,61.41,34.52z"/>
	</g>
	<g id="Grupo_997" transform="translate(1075.405 333.186)" class="st1">
		<path id="Trazado_5621" d="M61.41,34.51c0,14.71-11.92,26.65-26.64,26.65c-14.71,0-26.65-11.92-26.65-26.64
			c0-14.71,11.92-26.65,26.64-26.65c0,0,0,0,0,0C49.48,7.87,61.4,19.8,61.41,34.51z"/>
	</g>
	<path id="Trazado_5622" class="st2" d="M1138.05,368.08c0,15.4-12.48,27.88-27.88,27.88c-15.4,0-27.88-12.48-27.88-27.88
		c0-15.4,12.48-27.88,27.88-27.88C1125.56,340.2,1138.05,352.68,1138.05,368.08C1138.05,368.08,1138.05,368.08,1138.05,368.08z"/>
	
		<linearGradient id="Trazado_5623_1_" gradientUnits="userSpaceOnUse" x1="576.6405" y1="901.7417" x2="576.6405" y2="902.7417" gradientTransform="matrix(55.7542 0 0 -55.754 -31039.9297 50671.6602)">
		<stop  offset="0" style="stop-color:#000000"/>
		<stop  offset="1" style="stop-color:#FFFFFF"/>
	</linearGradient>
	<path id="Trazado_5623" class="st3" d="M1110.17,340.2c-15.4,0-27.88,12.48-27.88,27.88s12.48,27.88,27.88,27.87
		c15.4,0,27.88-12.48,27.88-27.88C1138.05,352.68,1125.57,340.2,1110.17,340.2C1110.17,340.2,1110.17,340.2,1110.17,340.2z
		 M1110.17,394.96c-14.85-0.01-26.88-12.05-26.88-26.9s12.05-26.88,26.9-26.88c14.85,0.01,26.88,12.04,26.88,26.89
		C1137.07,382.93,1125.03,394.96,1110.17,394.96C1110.17,394.96,1110.17,394.96,1110.17,394.96z"/>
	
		<linearGradient id="Trazado_5624_1_" gradientUnits="userSpaceOnUse" x1="576.6405" y1="901.7417" x2="576.6405" y2="902.7417" gradientTransform="matrix(55.7542 0 0 -55.754 -31039.9297 50671.6602)">
		<stop  offset="0" style="stop-color:#000000"/>
		<stop  offset="1" style="stop-color:#FFFFFF"/>
	</linearGradient>
	<path id="Trazado_5624" class="st4" d="M1110.17,340.2c-15.4,0-27.88,12.48-27.88,27.88s12.48,27.88,27.88,27.87
		c15.4,0,27.88-12.48,27.88-27.88C1138.05,352.68,1125.57,340.2,1110.17,340.2C1110.17,340.2,1110.17,340.2,1110.17,340.2z
		 M1110.17,394.96c-14.85-0.01-26.88-12.05-26.88-26.9s12.05-26.88,26.9-26.88c14.85,0.01,26.88,12.04,26.88,26.89
		C1137.07,382.93,1125.03,394.96,1110.17,394.96C1110.17,394.96,1110.17,394.96,1110.17,394.96z"/>
	
		<linearGradient id="Trazado_5625_1_" gradientUnits="userSpaceOnUse" x1="576.6405" y1="901.7417" x2="576.6405" y2="902.7417" gradientTransform="matrix(55.7542 0 0 -55.754 -31039.9297 50671.6602)">
		<stop  offset="0" style="stop-color:#FFFFFF"/>
		<stop  offset="1" style="stop-color:#000000"/>
	</linearGradient>
	<path id="Trazado_5625" class="st5" d="M1110.17,340.2c-15.4,0-27.88,12.48-27.88,27.88s12.48,27.88,27.88,27.87
		c15.4,0,27.88-12.48,27.88-27.88C1138.05,352.68,1125.57,340.2,1110.17,340.2C1110.17,340.2,1110.17,340.2,1110.17,340.2z
		 M1110.17,394.96c-14.85-0.01-26.88-12.05-26.88-26.9s12.05-26.88,26.9-26.88c14.85,0.01,26.88,12.04,26.88,26.89
		C1137.07,382.93,1125.03,394.96,1110.17,394.96C1110.17,394.96,1110.17,394.96,1110.17,394.96z"/>
	<path id="Trazado_5626" class="st6" d="M1120.58,367.06l-17.53-10.12v21.74L1120.58,367.06z"/>
	<path id="Trazado_5627" class="st7" d="M1121.49,367.82l-17.53-10.12v20.24L1121.49,367.82z"/>
</g>
</svg>
