<?xml version="1.0" encoding="utf-8"?>
<!-- Generator: Adobe Illustrator 24.3.0, SVG Export Plug-In . SVG Version: 6.00 Build 0)  -->
<svg version="1.1" id="Layer_1" xmlns="http://www.w3.org/2000/svg" xmlns:xlink="http://www.w3.org/1999/xlink" x="0px" y="0px"
	 viewBox="0 0 1080 1080" style="enable-background:new 0 0 1080 1080;" xml:space="preserve">
<style type="text/css">
	.st0{fill:#FFFFFF;}
	.st1{fill:#7C7C7B;}
	.st2{fill:#EB4141;}
	.st3{fill:#171714;}
</style>
<g transform="matrix(1, 0, 0, 1, 0, 0)">
	<circle id="Elipse_1-2" class="st0" cx="539" cy="539.5" r="521"/>
</g>
<g id="Grupo_20_1_" transform="translate(-179.326 -151.328)">
	<g id="Grupo_11_1_" transform="translate(247.375 240.32)">
		<path id="Trazado_22_1_" class="st1" d="M293.05,448.98l-5.13-0.09l-30.12-43.12c0.27,5.18,0.4,11.48,0.4,18.9v65.13h-7.89v-93.42
			h10.01l30.79,43.84l30-43.84h9.54v93.42h-8.27v-64.86l0.4-18.95L293.05,448.98z"/>
		<path id="Trazado_23_1_" class="st1" d="M362.28,469.52c6.14,12.46,21.23,17.58,33.69,11.44c4.88-2.4,8.84-6.32,11.31-11.17
			c1.85-4.9,2.71-10.11,2.53-15.35v-58.05h8.27v58.05c0.28,6.75-1.05,13.48-3.87,19.62c-2.58,5.24-6.67,9.59-11.75,12.48
			c-5.41,3.04-11.54,4.59-17.75,4.47c-6.19,0.12-12.3-1.42-17.68-4.47c-5.08-2.92-9.19-7.26-11.84-12.48
			c-2.81-6.1-4.14-12.77-3.87-19.48v-58.19h8.27v58.05C359.48,459.59,360.39,464.72,362.28,469.52z"/>
		<path id="Trazado_24_1_" class="st1" d="M505.47,396.39v93.42h-9.61l-49.51-81.85c0.17,3.56,0.26,8.83,0.27,15.79v66.1h-7.89
			v-93.45h9.35l49.9,82.51c-0.27-3.48-0.4-9.03-0.4-16.63v-65.87H505.47z"/>
		<path id="Trazado_25_1_" class="st1" d="M587.67,408.95c16.19,19.9,16.19,48.43,0,68.33c-9.36,8.85-21.98,13.39-34.84,12.54
			h-26.05v-93.44h26.05C565.69,395.54,578.31,400.1,587.67,408.95z M581.53,471.81c12.64-17.02,12.64-40.3,0-57.32
			c-6.98-7.44-16.91-11.38-27.09-10.74h-19.22v78.87h19.35c10.16,0.61,20.06-3.36,26.97-10.83L581.53,471.81z"/>
		<path id="Trazado_26_1_" class="st1" d="M687.43,408.46c15.93,20.34,15.93,48.92,0,69.26c-17.49,17.62-45.95,17.72-63.57,0.23
			c-0.08-0.07-0.15-0.15-0.22-0.23c-15.92-20.34-15.92-48.92,0-69.26c17.48-17.62,45.94-17.72,63.55-0.24
			C687.27,408.31,687.35,408.39,687.43,408.46z M690.83,443.1c0.4-10.56-3.06-20.9-9.74-29.09c-12.55-14.11-34.16-15.38-48.28-2.84
			c-1,0.89-1.95,1.84-2.84,2.84c-13.01,17.25-12.98,41.04,0.07,58.25c12.32,14.06,33.7,15.48,47.77,3.16c1.14-1,2.22-2.08,3.21-3.22
			c6.68-8.19,10.15-18.53,9.77-29.1L690.83,443.1z"/>
	</g>
	<g id="Grupo_12_1_" transform="translate(247.326 269.388)">
		<path id="Trazado_27_1_" class="st2" d="M617.76,644.96h16.77l-8.41-22.89L617.76,644.96z"/>
		<path id="Trazado_28_1_" class="st2" d="M399.7,619.51c-4.92-0.17-9.64,1.95-12.79,5.73c-6.5,8.6-6.5,20.47,0,29.07
			c6.14,7.03,16.81,7.74,23.84,1.61c0.57-0.5,1.11-1.04,1.61-1.61c6.51-8.58,6.51-20.45,0-29.03
			C409.25,621.51,404.58,619.39,399.7,619.51z"/>
		<path id="Trazado_29_1_" class="st2" d="M523.3,629.9c0-6.62-3.62-9.92-10.85-9.92h-8.72v19.98h8.33c3.07,0.25,6.12-0.72,8.49-2.7
			C522.44,635.3,523.44,632.63,523.3,629.9z"/>
		<path id="Trazado_30_1_" class="st2" d="M357.08,619.98h-7.73v22.51h7.73c3.23,0.19,6.39-0.95,8.75-3.16
			c2.11-2.21,3.23-5.2,3.09-8.26c0.15-3.02-0.96-5.96-3.06-8.12C363.45,620.83,360.29,619.76,357.08,619.98z"/>
		<path id="Trazado_31_1_" class="st2" d="M249.97,595.58v88.36h449.84v-88.36H249.97z M298.28,663.07h-26.24v-46.61h25.7v3.6
			h-21.57v16.98h20.85v3.6h-20.85v18.84h22.1L298.28,663.07z M333.84,663.07l-13.06-20.58l-13.32,20.58h-4.53l15.57-24.17
			l-14.21-22.45h4.59l11.99,18.81L333,616.45h4.67l-14.5,22.4l15.43,24.22H333.84z M368.73,641.96c-3.46,2.94-7.93,4.42-12.46,4.13
			h-6.92v16.98h-4.13v-46.61h11.05c4.51-0.29,8.96,1.14,12.46,3.99c2.97,2.75,4.58,6.67,4.4,10.72
			C373.28,635.23,371.68,639.16,368.73,641.96L368.73,641.96z M415.58,657.05c-8.73,8.79-22.94,8.84-31.73,0.11
			c-0.04-0.04-0.07-0.07-0.11-0.11c-7.95-10.15-7.95-24.42,0-34.57c8.73-8.79,22.94-8.84,31.73-0.11c0.04,0.04,0.07,0.07,0.11,0.11
			C423.53,632.63,423.53,646.9,415.58,657.05z M461.3,663.07h-4.07l-17.37-46.61h4.46l15.05,41.49l14.79-41.49h4.46L461.3,663.07z
			 M488.93,663.07h-4.33v-46.61h4.33V663.07z M531.58,663.56c-1.51-0.05-2.95-0.6-4.1-1.58c-1.14-1.09-2.09-2.36-2.8-3.77
			l-5.19-9.26c-0.86-1.75-2.15-3.25-3.76-4.36c-2.01-0.92-4.22-1.32-6.43-1.17h-5.6v19.65h-4.13v-46.61h12.39
			c4.19-0.33,8.35,0.96,11.62,3.6c2.65,2.63,4.04,6.26,3.83,9.99c0.05,2.8-0.88,5.53-2.63,7.73c-1.64,2.15-3.95,3.69-6.56,4.4
			c1.06,0.39,2.01,1.03,2.75,1.89c0.86,1.04,1.61,2.16,2.23,3.36l4.93,8.92c0.46,0.86,1.05,1.63,1.76,2.3
			c0.71,0.57,1.58,0.92,2.49,0.99L531.58,663.56z M563.3,620.14h-13.25v42.95h-4.26v-42.95H532.6v-3.66h30.7V620.14z M602.62,645.4
			c0.14,3.37-0.52,6.72-1.93,9.79c-1.29,2.61-3.33,4.78-5.86,6.23c-2.7,1.52-5.76,2.29-8.86,2.23c-3.09,0.06-6.14-0.71-8.83-2.23
			c-2.53-1.46-4.58-3.62-5.9-6.23c-1.41-3.04-2.07-6.38-1.93-9.73v-29.03h4.13v28.97c-0.06,2.57,0.4,5.13,1.33,7.52
			c3.07,6.22,10.59,8.77,16.81,5.7c2.43-1.2,4.4-3.15,5.63-5.56c0.92-2.44,1.35-5.05,1.26-7.66v-28.97h4.14V645.4z M641.18,663.05
			l-5.35-14.59h-19.34l-5.33,14.59h-4.4l17.45-46.61h3.87l17.45,46.61H641.18z M677.68,663.05h-25.51v-46.61h4.33v42.96h21.24
			L677.68,663.05z"/>
	</g>
	<g id="Grupo_18_1_" transform="translate(260.295 207.461)">
		<g id="Grupo_13_1_" transform="translate(10.049 18.234)">
			<path id="Trazado_32_1_" class="st1" d="M408.77,294.36l-0.12,0.21l0.09-0.09c8.14,3.71,16.42,7.26,24.85,10.66
				c12.65,5.09,0,0,0.06,0c0.06-0.01,0.12-0.01,0.18,0C425.34,301.73,416.95,298.14,408.77,294.36z M528.01,327
				c-0.15,0.24-0.3,0.44-0.44,0.66l0.47-0.66H528.01z"/>
		</g>
		<g id="Grupo_14_1_" transform="translate(0)">
			<path id="Trazado_33_1_" class="st1" d="M379.31,285.1c1.19-8.49,3.68-16.74,7.39-24.47c0.15-0.32,0.32-0.66,0.51-0.98
				c-0.06,0-0.09,0-0.12,0c-0.21,0.35-0.39,0.72-0.54,1.1c-0.62,1.31-1.25,2.68-1.81,4.04s-1.1,2.76-1.58,4.13
				c-0.36,1.04-0.71,2.11-1.04,3.16c-0.18,0.54-0.32,1.07-0.47,1.58c-0.18,0.54-0.33,1.08-0.44,1.63c-0.3,1.07-0.57,2.14-0.79,3.24
				c-0.47,2.17-0.89,4.37-1.19,6.56c0.74,0.47,1.48,0.92,2.26,1.4l3.74,2.19c2.02,1.16,4.07,2.37,6.15,3.47c0,0,0,0,0.06-0.06
				C387.26,289.85,383.2,287.51,379.31,285.1z M395.29,297.13c-0.1,0.13-0.18,0.27-0.24,0.42c-0.18,0.34-0.34,0.7-0.47,1.07
				c-0.06,0.12-0.11,0.25-0.15,0.39l0.74-1.45c1.22-2.31,3.2-4.13,5.61-5.14c-2.33,0.88-4.29,2.54-5.53,4.7L395.29,297.13z
				 M403.18,291.72c-0.25,0.03-0.5,0.09-0.74,0.18c0.28-0.09,0.57-0.15,0.86-0.18H403.18z M402.39,285.72
				c-0.04-0.01-0.08-0.01-0.12,0c0.44-0.06,0.89-0.12,1.33-0.15c-0.43,0.02-0.87,0.07-1.29,0.16L402.39,285.72z M403.32,291.72
				c1.01-0.15,2.03-0.15,3.03,0c-1.03-0.17-2.08-0.17-3.11,0.01L403.32,291.72z M453.35,320.55c-10.74-4.13-21.41-8.61-31.74-13.33
				c2.52-9.1-2.82-18.52-11.92-21.04c-0.54-0.15-1.09-0.27-1.65-0.37c7.16,1.34,12.71,7.05,13.84,14.25c0.39,2.37,0.25,4.8-0.42,7.1
				c10.36,4.74,21.02,9.24,31.77,13.42c0.42,0.15,0.83,0.32,1.25,0.47l0,0c0,0,0.06,0,0.09,0c-0.46-0.17-0.88-0.35-1.29-0.5
				L453.35,320.55z M379.31,285.1c1.19-8.49,3.68-16.74,7.39-24.47c0.15-0.32,0.32-0.66,0.51-0.98c-0.06,0-0.09,0-0.12,0
				c-0.21,0.35-0.39,0.72-0.54,1.1c-0.62,1.31-1.25,2.68-1.81,4.04s-1.1,2.76-1.58,4.13c-0.36,1.04-0.71,2.11-1.04,3.16
				c-0.18,0.54-0.32,1.07-0.47,1.58c-0.18,0.54-0.33,1.08-0.44,1.63c-0.3,1.07-0.57,2.14-0.79,3.24c-0.47,2.17-0.89,4.37-1.19,6.56
				c0.74,0.47,1.48,0.92,2.26,1.4l3.74,2.19c2.02,1.16,4.07,2.37,6.15,3.47c0,0,0,0,0.06-0.06
				C387.26,289.85,383.2,287.51,379.31,285.1z M395.29,297.13c-0.1,0.13-0.18,0.27-0.24,0.42c-0.18,0.34-0.34,0.7-0.47,1.07
				c-0.06,0.12-0.11,0.25-0.15,0.39l0.74-1.45c1.22-2.31,3.2-4.13,5.61-5.14c-2.33,0.88-4.29,2.54-5.53,4.7L395.29,297.13z
				 M403.18,291.72c-0.25,0.03-0.5,0.09-0.74,0.18c0.28-0.09,0.57-0.15,0.86-0.18H403.18z M402.39,285.72
				c-0.04-0.01-0.08-0.01-0.12,0c0.44-0.06,0.89-0.12,1.33-0.15c-0.43,0.02-0.87,0.07-1.29,0.16L402.39,285.72z M403.32,291.72
				c1.01-0.15,2.03-0.15,3.03,0c-1.03-0.17-2.08-0.17-3.11,0.01L403.32,291.72z M453.35,320.55c-10.74-4.13-21.41-8.61-31.74-13.33
				c2.52-9.1-2.82-18.52-11.92-21.04c-0.54-0.15-1.09-0.27-1.65-0.37c7.16,1.34,12.71,7.05,13.84,14.25c0.39,2.37,0.25,4.8-0.42,7.1
				c10.36,4.74,21.02,9.24,31.77,13.42c0.42,0.15,0.83,0.32,1.25,0.47l0,0c0,0,0.06,0,0.09,0c-0.46-0.17-0.88-0.35-1.29-0.5
				L453.35,320.55z M379.31,285.1c1.19-8.49,3.68-16.74,7.39-24.47c0.15-0.32,0.32-0.66,0.51-0.98c-0.06,0-0.09,0-0.12,0
				c-0.21,0.35-0.39,0.72-0.54,1.1c-0.62,1.31-1.25,2.68-1.81,4.04s-1.1,2.76-1.58,4.13c-0.36,1.04-0.71,2.11-1.04,3.16
				c-0.18,0.54-0.32,1.07-0.47,1.58c-0.18,0.54-0.33,1.08-0.44,1.63c-0.3,1.07-0.57,2.14-0.79,3.24c-0.51,2.16-0.91,4.35-1.19,6.56
				l0,0c0.74,0.44,1.48,0.92,2.26,1.37l3.74,2.19c2.02,1.16,4.07,2.37,6.15,3.47c0,0,0,0,0.06-0.06
				C387.26,289.85,383.2,287.51,379.31,285.1z M395.29,297.13c-0.1,0.13-0.18,0.27-0.24,0.42c-0.18,0.34-0.34,0.7-0.47,1.07
				c-0.06,0.12-0.11,0.25-0.15,0.39l0.74-1.45c1.22-2.31,3.2-4.13,5.61-5.14c-2.33,0.88-4.29,2.54-5.53,4.7L395.29,297.13z
				 M403.18,291.72c-0.25,0.03-0.5,0.09-0.74,0.18c0.28-0.09,0.57-0.15,0.86-0.18H403.18z M402.39,285.72
				c-0.04-0.01-0.08-0.01-0.12,0c0.44-0.06,0.89-0.12,1.33-0.15c-0.43,0.02-0.87,0.07-1.29,0.16L402.39,285.72z M403.32,291.72
				c1.01-0.15,2.03-0.15,3.03,0c-1.03-0.17-2.08-0.17-3.11,0.01L403.32,291.72z M550.49,314.11c-2.19,11.03-6.41,21.56-12.44,31.05
				c0.03-0.01,0.06-0.01,0.09,0c6.03-9.48,10.26-19.99,12.47-31c0,0-0.17-0.02-0.2-0.05L550.49,314.11z M457.34,322.06
				c0,0-0.06,0-0.12,0.06c24.14,9.3,49.01,16.61,74.35,21.85l0,0c-25.32-5.26-50.17-12.58-74.3-21.9L457.34,322.06z M453.33,320.55
				c-10.74-4.13-21.41-8.61-31.74-13.33c2.52-9.1-2.82-18.52-11.92-21.04c-0.54-0.15-1.09-0.27-1.65-0.37
				c7.16,1.34,12.71,7.05,13.84,14.25c0.39,2.37,0.25,4.8-0.42,7.1c10.36,4.74,21.02,9.24,31.77,13.42
				c0.42,0.15,0.83,0.32,1.25,0.47l0,0c0,0,0.06,0,0.09,0c-0.44-0.17-0.86-0.35-1.28-0.5L453.33,320.55z M379.31,285.1
				c1.19-8.49,3.68-16.74,7.39-24.47c0.15-0.32,0.32-0.66,0.51-0.98c-0.06,0-0.09,0-0.12,0c-0.21,0.35-0.39,0.72-0.54,1.1
				c-0.62,1.31-1.25,2.68-1.81,4.04s-1.1,2.76-1.58,4.13c-0.36,1.04-0.71,2.11-1.04,3.16c-0.18,0.54-0.32,1.07-0.47,1.58
				c-0.18,0.54-0.33,1.08-0.44,1.63c-0.3,1.07-0.57,2.14-0.79,3.24c-0.47,2.17-0.89,4.37-1.19,6.56c0.74,0.47,1.48,0.92,2.26,1.4
				l3.74,2.19c2.02,1.16,4.07,2.37,6.15,3.47c0,0,0,0,0.06-0.06C387.26,289.85,383.2,287.51,379.31,285.1z M395.29,297.13
				c-0.1,0.13-0.18,0.27-0.24,0.42c-0.18,0.34-0.34,0.7-0.47,1.07c-0.06,0.12-0.11,0.25-0.15,0.39l0.74-1.45
				c1.22-2.31,3.2-4.13,5.61-5.14c-2.33,0.88-4.29,2.54-5.53,4.7L395.29,297.13z M403.18,291.72c-0.25,0.03-0.5,0.09-0.74,0.18
				c0.28-0.09,0.57-0.15,0.86-0.18H403.18z M402.39,285.72c-0.04-0.01-0.08-0.01-0.12,0c0.44-0.06,0.89-0.12,1.33-0.15
				c-0.43,0.02-0.87,0.07-1.29,0.16L402.39,285.72z M403.32,291.72c1.01-0.15,2.03-0.15,3.03,0c-1.03-0.17-2.08-0.17-3.11,0.01
				L403.32,291.72z M453.35,320.55c-10.74-4.13-21.41-8.61-31.74-13.33c2.52-9.1-2.82-18.52-11.92-21.04
				c-0.54-0.15-1.09-0.27-1.65-0.37c7.16,1.34,12.71,7.05,13.84,14.25c0.39,2.37,0.25,4.8-0.42,7.1
				c10.36,4.74,21.02,9.24,31.77,13.42c0.42,0.15,0.83,0.32,1.25,0.47l0,0c0,0,0.06,0,0.09,0c-0.46-0.17-0.88-0.35-1.29-0.5
				L453.35,320.55z"/>
			<path id="Trazado_34_1_" class="st1" d="M551.57,307.64c0.98-8.23,0.83-16.55-0.44-24.73c-0.84-5.33-2.16-10.58-3.95-15.68
				c-3.24-9.4-8.05-18.18-14.21-25.98l8.31-8.49l-0.18-16.72l-16.72,0.18l-8.31,8.52c-2.42-1.83-4.94-3.52-7.54-5.08l6.95-16.21
				l-8.49-21.26l-21.26,8.49l-7.54,17.6c-2.73-0.51-5.53-0.86-8.28-1.1l-3.44-21.88l-22.84-16.66l-16.66,22.89l3.32,21.31
				c-16.67,6.37-31.09,17.54-41.42,32.1c-20.33-3.59-44.62-5.26-48.94,5.85c-4.32,11.11,15,26.37,32.69,37.5
				c-4.7,49.44,31.57,93.33,81.02,98.03c7.46,0.71,14.99,0.48,22.39-0.68c23.23-3.53,44.12-16.1,58.11-34.98
				c0.05,0.02,0.1,0.02,0.15,0c11.89,2.54,24.09,3.26,36.19,2.14c2.97-0.38,5.86-1.29,8.52-2.68c2.17-1.11,3.88-2.97,4.81-5.23
				C588.15,333.83,569.09,318.75,551.57,307.64z M527.32,224.45l5.73,5.58l-5.14,5.23c-1.84-1.96-3.74-3.8-5.73-5.53L527.32,224.45z
				 M493.55,199.8l10.03,4.31l-4.55,10.6c-3.33-1.51-6.76-2.8-10.26-3.86L493.55,199.8z M441.09,195.91l13.36-2.08l2.08,13.24
				c-2.7,0.15-5.41,0.47-8.11,0.89c-1.78,0.27-3.54,0.62-5.29,1.01L441.09,195.91z M449.05,214.02c0.09,0,0.21,0,0.3-0.06
				c0.09-0.06,0.27,0,0.39-0.06s0.18,0,0.27,0c29.45-4.42,59.03,7.15,77.67,30.38c-4.44-0.88-8.99-1.07-13.48-0.56
				c-11.32,2.56-23.1,2.34-34.32-0.62c-14.12-5.67-29.3-8.23-44.51-7.48c-8.27,0.63-16.54-1.3-23.68-5.53
				C422.62,221.73,435.46,216.22,449.05,214.02L449.05,214.02z M392.84,249.86c4.74-7.01,10.51-13.25,17.13-18.53
				c7.59,4.8,16.53,7,25.47,6.27c14.91-0.73,29.8,1.78,43.65,7.37c11.58,3.09,23.72,3.34,35.42,0.74c5.02-0.51,10.08-0.2,15,0.92
				l0,0c4.88,6.49,8.76,13.67,11.52,21.31c-9.31,2.56-19.12,2.78-28.54,0.66c-9.56-3.89-22.39-3.27-39.22,1.9
				c-13.33,4.07-36.31-2.23-49.91-10.36c-10.26-6.17-26.9-4.28-35.03-2.85C389.69,254.73,391.2,252.25,392.84,249.86L392.84,249.86z
				 M387.06,259.65c0,0,0.06,0,0.12,0c7.16-1.37,24.88-3.89,35.15,2.29c14.01,8.38,37.71,14.82,51.55,10.57
				c16.39-5.02,28.77-5.67,37.89-1.96c7.46,2.1,15.31,2.35,22.89,0.74c2.82-0.44,5.31-0.95,7.1-1.37c1.55,4.53,2.71,9.19,3.44,13.92
				c1.09,6.89,1.31,13.89,0.66,20.84v0.27c-0.12,1.25-0.24,2.49-0.42,3.74c-1.14,7.85-3.39,15.5-6.68,22.71h-0.12
				c-6.3-0.05-12.36-2.43-17.01-6.68c-9.74-8.9-59.14-7.57-65.2-4.45c-0.59,0.3-1.19,0.56-1.82,0.79c0,0-0.06,0-0.09,0l0,0
				c-0.42-0.15-0.83-0.32-1.25-0.47c-10.74-4.16-21.41-8.64-31.77-13.42c0.67-2.31,0.81-4.73,0.42-7.1
				c-1.13-7.2-6.67-12.91-13.84-14.25c-1.46-0.26-2.94-0.33-4.42-0.21c-0.44,0-0.89,0.09-1.33,0.15c-0.27,0.04-0.53,0.09-0.79,0.15
				c-0.28,0.05-0.56,0.12-0.83,0.21c-0.12,0-0.25,0.03-0.36,0.09c-0.54,0.15-1.06,0.33-1.58,0.54c-0.83,0.3-1.62,0.69-2.37,1.16
				c-1.85,1.11-3.48,2.55-4.81,4.25l0,0c-0.06,0-0.09,0-0.06,0.06c-2.08-1.13-4.13-2.31-6.15-3.47l-3.74-2.19
				c-0.79-0.44-1.52-0.92-2.26-1.37l0,0c0.28-2.21,0.68-4.4,1.19-6.56c0.2-1.09,0.47-2.17,0.79-3.24c0.12-0.55,0.26-1.1,0.44-1.63
				c0.15-0.54,0.3-1.07,0.47-1.58c0.3-1.07,0.66-2.11,1.04-3.16c0.47-1.37,1.01-2.76,1.58-4.13c0.57-1.37,1.16-2.73,1.81-4.04
				C386.81,260.44,386.92,260.05,387.06,259.65L387.06,259.65z M415.56,306v0.06l-0.71,1.45c-2.65,5.53-9.28,7.87-14.82,5.22
				c-3.3-1.58-5.61-4.69-6.17-8.3c-0.22-1.47-0.15-2.96,0.21-4.4c0.07-0.32,0.17-0.64,0.3-0.95c-0.01-0.03-0.01-0.06,0-0.09
				c0.04-0.13,0.09-0.26,0.15-0.39c0.13-0.37,0.29-0.72,0.47-1.07c0.06-0.15,0.14-0.29,0.24-0.42c1.24-2.17,3.19-3.84,5.53-4.74
				c0.52-0.24,1.07-0.41,1.63-0.51c0.24-0.09,0.49-0.15,0.74-0.18h0.12c1-0.16,2.03-0.16,3.03,0c0.31,0.01,0.62,0.06,0.92,0.15
				c0.27,0.05,0.53,0.12,0.79,0.21c0.25,0.06,0.5,0.14,0.74,0.24c0.07,0.02,0.14,0.05,0.21,0.09c0.29,0.09,0.57,0.21,0.83,0.36
				c0.25,0.11,0.48,0.24,0.71,0.39c0.36,0.21,0.71,0.44,1.04,0.66c2.41,1.7,4.02,4.3,4.45,7.22c0.27,1.69,0.12,3.41-0.42,5.03
				L415.56,306z M345.64,252.94c0.69-1.78,3.35-3.35,8.46-4.16c10.38-1.03,20.86-0.5,31.09,1.58c-5.77,9.59-9.71,20.17-11.61,31.2
				C350.63,266.85,344.09,256.96,345.64,252.94L345.64,252.94z M379.37,309.78c-0.92-5.95-1.21-11.98-0.86-17.99
				c3.24,1.96,6.59,3.86,9.98,5.73c-0.01,0.03-0.01,0.06,0,0.09c-0.12,0.39-0.24,0.79-0.32,1.18c-0.09,0.39-0.18,0.83-0.24,1.28
				c-0.1,0.43-0.15,0.87-0.15,1.31c0,0.42-0.06,0.86-0.06,1.28c0,0.9,0.06,1.81,0.21,2.7c1.44,9.35,10.18,15.77,19.53,14.33
				c0.6-0.09,1.19-0.22,1.78-0.37c0.6-0.14,1.18-0.33,1.75-0.57c0.5-0.18,0.98-0.39,1.45-0.62c0.55-0.24,1.08-0.53,1.58-0.86
				c0.38-0.2,0.73-0.44,1.07-0.71c0.59-0.42,1.15-0.89,1.67-1.4c0.45-0.42,0.86-0.86,1.25-1.33c0.14-0.12,0.25-0.26,0.36-0.42
				l0.3-0.39c0.07-0.06,0.12-0.13,0.15-0.21l0.12-0.21c8.16,3.77,16.58,7.37,25.06,10.74c-0.06-0.01-0.12-0.01-0.18,0h-0.06
				c-9.06,1.11-18.24,0.79-27.19-0.95c-11.12-1.75-22.51-0.87-33.23,2.58C381.54,320.05,380.21,314.96,379.37,309.78L379.37,309.78z
				 M475.15,379.64c-33.19,5.15-66.25-9.98-84.05-38.45c7.86,2.06,16.13,1.99,23.96-0.21c9.42-1.13,18.97,0.15,27.76,3.71
				c11.12,4.1,22.98,5.77,34.8,4.9c13.42-1.03,26.61,3.88,36.11,13.42C502.49,371.75,489.21,377.47,475.15,379.64L475.15,379.64z
				 M515.33,361.71c-9.93-10.15-23.89-15.32-38.03-14.1c-11.53,0.81-23.1-0.84-33.94-4.84c-9.15-3.69-19.1-4.98-28.89-3.74
				c-8.18,2.24-16.83,2.11-24.94-0.39c-2.19-3.75-4.06-7.67-5.61-11.73c10.38-3.29,21.37-4.14,32.13-2.49
				c10.38,2.02,21.04,2.17,31.47,0.44h0.15c1.13,0.47,2.14,0.92,3.27,1.37c24.85,9.78,50.46,17.53,76.57,23.16
				C523.88,353.9,519.79,358.04,515.33,361.71L515.33,361.71z M531.63,343.98c-0.03,0.01-0.06,0.01-0.09,0l0,0
				c-25.34-5.24-50.2-12.55-74.35-21.85c0.06,0,0.09,0,0.12-0.06c5.7-2.97,53.89-4.1,62.88,4.13c4.77,4.41,10.97,6.97,17.46,7.22
				h0.12C535.97,337.08,533.92,340.61,531.63,343.98L531.63,343.98z M537.63,345.89c0.15-0.21,0.3-0.42,0.44-0.66l0,0L537.63,345.89
				z M578.22,342.73c-1.58,4.07-13.06,6.98-40.14,2.49c-0.03-0.01-0.06-0.01-0.09,0c6.03-9.49,10.25-20.02,12.44-31.05
				c0,0,0.09,0.06,0.12,0.09c20.67,13.36,27.88,22.66,27.88,27.26c0,0.41-0.07,0.81-0.22,1.19L578.22,342.73z"/>
		</g>
		<g id="Grupo_15_1_" transform="translate(24.342 17.264)">
			<path id="Trazado_35_1_" class="st1" d="M513.72,327.97c-0.15,0.24-0.3,0.44-0.44,0.66l0.47-0.66H513.72z M513.28,316.13
				c-1.77,3.65-3.81,7.18-6.09,10.54c0.03,0.01,0.06,0.01,0.09,0c2.28-3.38,4.33-6.91,6.12-10.57L513.28,316.13z M520.88,291.39
				c-1.13,7.85-3.38,15.5-6.68,22.71h0.12c3.29-7.22,5.54-14.86,6.68-22.71c0.18-1.25,0.3-2.49,0.42-3.74L520.88,291.39z"/>
		</g>
		<g id="Grupo_16_1_" transform="translate(6.589 15.105)">
			<path id="Trazado_36_1_" class="st1" d="M384.8,277.01L384.8,277.01c1.33-1.7,2.96-3.13,4.81-4.25
				C387.74,273.85,386.11,275.29,384.8,277.01z M409.36,285.88c-0.44-2.91-2.04-5.52-4.45-7.22c2.32,1.76,3.87,4.34,4.33,7.22
				c0.35,2.23,0.01,4.51-0.98,6.54l0.71-1.45v-0.09C409.5,289.26,409.63,287.56,409.36,285.88L409.36,285.88z"/>
		</g>
		<g id="Grupo_17_1_" transform="translate(27.364 12.372)">
			<path id="Trazado_37_1_" class="st1" d="M540.87,276.03c-6.06,0.96-11.75-3.18-12.7-9.24c-0.96-6.06,3.18-11.75,9.24-12.7
				c3.48-0.55,7.01,0.58,9.52,3.05c4.37,4.31,4.42,11.35,0.11,15.72C545.38,274.55,543.22,275.66,540.87,276.03z M538.34,260.07
				c-2.76,0.44-4.63,3.03-4.19,5.78c0.39,2.46,2.53,4.27,5.02,4.26c2.79-0.02,5.03-2.3,5.01-5.09c-0.02-2.79-2.3-5.03-5.09-5.01l0,0
				C538.84,260.01,538.59,260.03,538.34,260.07z"/>
		</g>
	</g>
	<g id="Grupo_19_1_" transform="translate(247.351 256.138)">
		<path id="Trazado_38_1_" class="st3" d="M408.12,576.83h19.6l-44.92-72.62h-20.22l-49.53,72.62h16.77l12.32-18.01h54.84
			L408.12,576.83z M348.52,549.52l22.43-32.78l20.26,32.78H348.52z"/>
		<path id="Trazado_39_1_" class="st3" d="M421.82,504.24l41.14,60.09l37.16-60.09h19.6l-44.92,72.62h-20.2l-49.54-72.62H421.82z"/>
		<path id="Trazado_40_1_" class="st3" d="M601.91,513.55v-9.31h-72.47v72.62h72.47v-9.31h-55.13V545.2h43.7v-9.31h-43.7v-22.33
			H601.91z"/>
		<path id="Trazado_41_1_" class="st3" d="M671.82,545.22h0.88c11.31,0.16,20.6-8.88,20.76-20.19c0.16-11.31-8.88-20.6-20.19-20.76
			c-0.26,0-0.52,0-0.77,0h-56.78v72.52h17.37v-31.58h19.56l27.09,31.31h19.89L671.82,545.22z M633.05,536.17v-22.58h31.13
			c6.23-0.02,11.3,5.02,11.32,11.25c0.02,6.23-5.02,11.3-11.25,11.32c-0.02,0-0.05,0-0.07,0H633.05z"/>
		<path id="Trazado_42_1_" class="st3" d="M288.06,504.24c0,0-0.04,39.29-0.04,62.68c-0.27,22.21-31.62,16.58-37.89,14.4v9.66
			c5.41,1.26,55.26,11.45,55.26-23.63V504.2L288.06,504.24z"/>
	</g>
</g>
</svg>
