<svg xmlns="http://www.w3.org/2000/svg" width="112.46" height="144.302" viewBox="0 0 112.46 144.302">
  <g id="Grupo_507" data-name="Grupo 507" transform="translate(-247.326 -207.461)">
    <g id="Grupo_498" data-name="Grupo 498" transform="translate(247.423 272.307)">
      <path id="Trazado_483" data-name="Trazado 483" d="M258.27,394.458l-1.283-.023-7.532-10.78q.1,1.944.1,4.724v16.283h-1.969V381.308h2.5l7.7,10.96,7.5-10.96h2.387v23.354H265.6V388.447l.1-4.737Z" transform="translate(-247.586 -381.007)" fill="#fff"/>
      <path id="Trazado_484" data-name="Trazado 484" d="M317.718,399.591a5.6,5.6,0,0,0,5.605,3.5q4.137,0,5.638-3.436a9.948,9.948,0,0,0,.634-3.837V381.308h2.068v14.513a10.687,10.687,0,0,1-.967,4.9,7.3,7.3,0,0,1-2.936,3.12,8.714,8.714,0,0,1-4.438,1.117,8.62,8.62,0,0,1-4.421-1.117,7.533,7.533,0,0,1-2.953-3.12,10.592,10.592,0,0,1-.968-4.871V381.308h2.069v14.513A9.759,9.759,0,0,0,317.718,399.591Z" transform="translate(-289.726 -381.007)" fill="#fff"/>
      <path id="Trazado_485" data-name="Trazado 485" d="M389.978,381.308v23.354h-2.4L375.2,384.2q.066,1.336.067,3.939v16.523H373.3V381.308h2.336l12.477,20.627q-.1-1.307-.1-4.159V381.308Z" transform="translate(-326.189 -381.007)" fill="#fff"/>
      <path id="Trazado_486" data-name="Trazado 486" d="M447.271,384.444q3.035,3.136,3.036,8.541t-3.036,8.541q-3.036,3.136-8.708,3.136h-6.506V381.308h6.506Q444.234,381.308,447.271,384.444Zm-1.535,15.714a12.019,12.019,0,0,0,0-14.33,8.554,8.554,0,0,0-6.773-2.686h-4.8V402.86H439A8.485,8.485,0,0,0,445.736,400.158Z" transform="translate(-362.929 -381.007)" fill="#fff"/>
      <path id="Trazado_487" data-name="Trazado 487" d="M507.613,383.826a14.045,14.045,0,0,1,0,17.315,11.237,11.237,0,0,1-15.948,0,14.045,14.045,0,0,1,0-17.315,11.236,11.236,0,0,1,15.948,0Zm.851,8.657a10.85,10.85,0,0,0-2.435-7.273,8.549,8.549,0,0,0-12.778,0,12.069,12.069,0,0,0,.017,14.563,8.462,8.462,0,0,0,12.744-.016A10.884,10.884,0,0,0,508.464,392.483Z" transform="translate(-398.334 -380.506)" fill="#fff"/>
    </g>
    <g id="Grupo_499" data-name="Grupo 499" transform="translate(247.326 329.672)">
      <path id="Trazado_488" data-name="Trazado 488" d="M492.694,556.992h4.191l-2.1-5.716Z" transform="translate(-400.746 -544.648)" fill="#eb4141"/>
      <path id="Trazado_489" data-name="Trazado 489" d="M339.856,549.558a3.987,3.987,0,0,0-3.2,1.432,6.023,6.023,0,0,0,.008,7.267,4.223,4.223,0,0,0,6.36-.009,6.01,6.01,0,0,0,.008-7.259A3.97,3.97,0,0,0,339.856,549.558Z" transform="translate(-302.423 -543.574)" fill="#eb4141"/>
      <path id="Trazado_490" data-name="Trazado 490" d="M421.508,552.349q0-2.48-2.713-2.48h-2.181v4.994H418.7a2.935,2.935,0,0,0,2.122-.674A2.452,2.452,0,0,0,421.508,552.349Z" transform="translate(-353.176 -543.768)" fill="#eb4141"/>
      <path id="Trazado_491" data-name="Trazado 491" d="M315.562,549.869H313.63V555.5h1.932a2.942,2.942,0,0,0,2.189-.782,2.806,2.806,0,0,0,.774-2.064,2.712,2.712,0,0,0-.766-2.031A3.012,3.012,0,0,0,315.562,549.869Z" transform="translate(-288.784 -543.768)" fill="#eb4141"/>
      <path id="Trazado_492" data-name="Trazado 492" d="M247.326,533.589V555.68h112.46V533.589ZM259.4,550.461h-6.559V538.807h6.426v.9h-5.394v4.245h5.211v.9h-5.211v4.712H259.4Zm8.891,0-3.264-5.145-3.33,5.145h-1.132l3.893-6.042-3.56-5.612h1.149l3,4.7,3.03-4.7h1.166l-3.625,5.6,3.858,6.054Zm8.723-5.278a4.373,4.373,0,0,1-3.113,1.032h-1.732v4.246H271.14V538.807H273.9a4.465,4.465,0,0,1,3.113,1,3.446,3.446,0,0,1,1.1,2.68A3.53,3.53,0,0,1,277.017,545.184Zm11.712,3.771a5.608,5.608,0,0,1-7.958,0,7.009,7.009,0,0,1,0-8.641,5.608,5.608,0,0,1,7.958,0,7.009,7.009,0,0,1,0,8.641Zm11.429,1.506h-1.016L294.8,538.807h1.116l3.761,10.373,3.7-10.373h1.116Zm6.909,0h-1.082V538.807h1.082Zm10.668.117a1.667,1.667,0,0,1-1.026-.391,3.52,3.52,0,0,1-.7-.941l-1.3-2.314a2.859,2.859,0,0,0-.94-1.091,3.306,3.306,0,0,0-1.607-.291h-1.4v4.911h-1.032V538.807h3.1a4.114,4.114,0,0,1,2.905.9,3.261,3.261,0,0,1,.957,2.5,3.025,3.025,0,0,1-.658,1.932,3.073,3.073,0,0,1-1.639,1.1,1.663,1.663,0,0,1,.687.471,4.585,4.585,0,0,1,.557.84l1.233,2.23a2.24,2.24,0,0,0,.441.575,1.136,1.136,0,0,0,.624.246Zm7.929-10.855h-3.313v10.738h-1.065V539.723h-3.3v-.916h7.675Zm9.823,6.326a5.335,5.335,0,0,1-.483,2.447,3.647,3.647,0,0,1-1.465,1.557,4.348,4.348,0,0,1-2.214.558,4.3,4.3,0,0,1-2.206-.558,3.762,3.762,0,0,1-1.473-1.557,5.286,5.286,0,0,1-.483-2.431v-7.259H328.2v7.242a4.872,4.872,0,0,0,.333,1.881,3.139,3.139,0,0,0,5.611.033,4.967,4.967,0,0,0,.316-1.915v-7.242h1.032Zm9.639,4.412-1.339-3.646h-4.836l-1.333,3.646h-1.1l4.363-11.654h.966l4.362,11.654Zm9.126,0h-6.377V538.807h1.082v10.739h5.311Z" transform="translate(-247.326 -533.589)" fill="#eb4141"/>
    </g>
    <g id="Grupo_505" data-name="Grupo 505" transform="translate(272.921 207.461)">
      <g id="Grupo_500" data-name="Grupo 500" transform="translate(19.832 35.985)">
        <path id="Trazado_493" data-name="Trazado 493" d="M368.579,303.49c-.008.015-.022.037-.03.052l.022-.022q3.051,1.392,6.213,2.665c.007-.008.007-.008.015,0a.093.093,0,0,1,.045-.008C372.721,305.331,370.62,304.433,368.579,303.49Zm29.81,8.158c-.037.059-.074.111-.111.163l.119-.163Z" transform="translate(-368.549 -303.49)" fill="#fff"/>
      </g>
      <g id="Grupo_501" data-name="Grupo 501">
        <path id="Trazado_494" data-name="Trazado 494" d="M342.206,274.522a20.794,20.794,0,0,1,1.848-6.124c.037-.082.082-.163.126-.245-.015,0-.022,0-.03.007a1.878,1.878,0,0,0-.134.275c-.156.327-.312.668-.453,1.01s-.275.69-.393,1.032c-.089.26-.178.527-.26.787-.045.134-.082.267-.119.4a3.633,3.633,0,0,0-.111.408c-.075.267-.141.534-.2.809-.119.542-.223,1.091-.3,1.641.186.119.371.23.564.349.3.178.616.363.935.549.5.289,1.017.586,1.536.868-.008-.007,0-.007.015-.015C344.2,275.709,343.186,275.123,342.206,274.522Zm3.994,3.006a.469.469,0,0,0-.06.1,2.114,2.114,0,0,0-.119.267.548.548,0,0,0-.037.1l.185-.364a2.811,2.811,0,0,1,1.4-1.284A2.7,2.7,0,0,0,346.2,277.528Zm1.967-1.351a.748.748,0,0,0-.186.045,1.231,1.231,0,0,1,.215-.045Zm-.2-1.5a.043.043,0,0,0-.03.008c.111-.015.223-.03.334-.037A2.088,2.088,0,0,0,347.966,274.677Zm.23,1.5a2.593,2.593,0,0,1,.757-.007A2.357,2.357,0,0,0,348.2,276.177Zm12.507,7.208c-2.687-1.032-5.352-2.153-7.935-3.333a4.275,4.275,0,0,0-3.392-5.352,4.3,4.3,0,0,1,3.459,3.563,4.016,4.016,0,0,1-.1,1.781c2.59,1.188,5.255,2.308,7.942,3.347.1.037.208.082.312.119h.007c.008,0,.015-.007.022-.007C360.912,283.466,360.808,283.422,360.7,283.384Zm-18.5-8.863a20.794,20.794,0,0,1,1.848-6.124c.037-.082.082-.163.126-.245-.015,0-.022,0-.03.007a1.878,1.878,0,0,0-.134.275c-.156.327-.312.668-.453,1.01s-.275.69-.393,1.032c-.089.26-.178.527-.26.787-.045.134-.082.267-.119.4a3.633,3.633,0,0,0-.111.408c-.075.267-.141.534-.2.809-.119.542-.223,1.091-.3,1.641.186.119.371.23.564.349.3.178.616.363.935.549.5.289,1.017.586,1.536.868-.008-.007,0-.007.015-.015C344.2,275.709,343.186,275.123,342.206,274.522Zm3.994,3.006a.469.469,0,0,0-.06.1,2.114,2.114,0,0,0-.119.267.548.548,0,0,0-.037.1l.185-.364a2.811,2.811,0,0,1,1.4-1.284A2.7,2.7,0,0,0,346.2,277.528Zm1.967-1.351a.748.748,0,0,0-.186.045,1.231,1.231,0,0,1,.215-.045Zm-.2-1.5a.043.043,0,0,0-.03.008c.111-.015.223-.03.334-.037A2.088,2.088,0,0,0,347.966,274.677Zm.23,1.5a2.593,2.593,0,0,1,.757-.007A2.357,2.357,0,0,0,348.2,276.177Zm12.507,7.208c-2.687-1.032-5.352-2.153-7.935-3.333a4.275,4.275,0,0,0-3.392-5.352,4.3,4.3,0,0,1,3.459,3.563,4.016,4.016,0,0,1-.1,1.781c2.59,1.188,5.255,2.308,7.942,3.347.1.037.208.082.312.119h.007c.008,0,.015-.007.022-.007C360.912,283.466,360.808,283.422,360.7,283.384Zm-18.5-8.863a20.794,20.794,0,0,1,1.848-6.124c.037-.082.082-.163.126-.245-.015,0-.022,0-.03.007a1.878,1.878,0,0,0-.134.275c-.156.327-.312.668-.453,1.01s-.275.69-.393,1.032c-.089.26-.178.527-.26.787-.045.134-.082.267-.119.4a3.633,3.633,0,0,0-.111.408c-.075.267-.141.534-.2.809a15.571,15.571,0,0,0-.3,1.641v.008c.186.111.371.23.564.341.3.178.616.363.935.549.5.289,1.017.586,1.536.868-.008-.007,0-.007.015-.015C344.2,275.709,343.186,275.123,342.206,274.522Zm3.994,3.006a.469.469,0,0,0-.06.1,2.114,2.114,0,0,0-.119.267.548.548,0,0,0-.037.1l.185-.364a2.811,2.811,0,0,1,1.4-1.284A2.7,2.7,0,0,0,346.2,277.528Zm1.967-1.351a.748.748,0,0,0-.186.045,1.231,1.231,0,0,1,.215-.045Zm-.2-1.5a.043.043,0,0,0-.03.008c.111-.015.223-.03.334-.037A2.088,2.088,0,0,0,347.966,274.677Zm.23,1.5a2.593,2.593,0,0,1,.757-.007A2.357,2.357,0,0,0,348.2,276.177Zm36.794,5.6a22.689,22.689,0,0,1-3.11,7.764.027.027,0,0,1,.022.008,22.775,22.775,0,0,0,3.117-7.749C385.013,281.788,385,281.781,384.991,281.773Zm-23.285,1.989c-.007.008-.015.008-.03.015a118.382,118.382,0,0,0,18.586,5.463c.008,0,.008,0,.008-.008A118.294,118.294,0,0,1,361.706,283.763Zm-1-.379c-2.687-1.032-5.352-2.153-7.935-3.333a4.275,4.275,0,0,0-3.392-5.352,4.3,4.3,0,0,1,3.459,3.563,4.016,4.016,0,0,1-.1,1.781c2.59,1.188,5.255,2.308,7.942,3.347.1.037.208.082.312.119h.007c.008,0,.015-.007.022-.007C360.912,283.466,360.808,283.422,360.7,283.384Zm-18.5-8.863a20.794,20.794,0,0,1,1.848-6.124c.037-.082.082-.163.126-.245-.015,0-.022,0-.03.007a1.878,1.878,0,0,0-.134.275c-.156.327-.312.668-.453,1.01s-.275.69-.393,1.032c-.089.26-.178.527-.26.787-.045.134-.082.267-.119.4a3.633,3.633,0,0,0-.111.408c-.075.267-.141.534-.2.809-.119.542-.223,1.091-.3,1.641.186.119.371.23.564.349.3.178.616.363.935.549.5.289,1.017.586,1.536.868-.008-.007,0-.007.015-.015C344.2,275.709,343.186,275.123,342.206,274.522Zm3.994,3.006a.469.469,0,0,0-.06.1,2.114,2.114,0,0,0-.119.267.548.548,0,0,0-.037.1l.185-.364a2.811,2.811,0,0,1,1.4-1.284A2.7,2.7,0,0,0,346.2,277.528Zm1.967-1.351a.748.748,0,0,0-.186.045,1.231,1.231,0,0,1,.215-.045Zm-.2-1.5a.043.043,0,0,0-.03.008c.111-.015.223-.03.334-.037A2.088,2.088,0,0,0,347.966,274.677Zm.23,1.5a2.593,2.593,0,0,1,.757-.007A2.357,2.357,0,0,0,348.2,276.177Zm12.507,7.208c-2.687-1.032-5.352-2.153-7.935-3.333a4.275,4.275,0,0,0-3.392-5.352,4.3,4.3,0,0,1,3.459,3.563,4.016,4.016,0,0,1-.1,1.781c2.59,1.188,5.255,2.308,7.942,3.347.1.037.208.082.312.119h.007c.008,0,.015-.007.022-.007C360.912,283.466,360.808,283.422,360.7,283.384Z" transform="translate(-332.232 -245.41)" fill="#fff"/>
        <path id="Trazado_495" data-name="Trazado 495" d="M368.676,242.207a22.725,22.725,0,0,0-.111-6.183,22.456,22.456,0,0,0-.98-3.919,22.128,22.128,0,0,0-3.548-6.495l2.078-2.123-.045-4.179-4.179.045-2.078,2.13a20.945,20.945,0,0,0-1.885-1.269l1.737-4.053-2.123-5.315-5.315,2.123-1.885,4.4c-.683-.126-1.373-.215-2.071-.274l-.861-5.471-5.708-4.164-4.164,5.715.832,5.322a22.582,22.582,0,0,0-10.355,8.024c-5.084-.9-11.156-1.314-12.232,1.462s3.756,6.592,8.172,9.375A22.481,22.481,0,0,0,349.8,261.7a22.241,22.241,0,0,0,14.526-8.744.056.056,0,0,0,.037.007,30.085,30.085,0,0,0,9.048.534,6.358,6.358,0,0,0,2.13-.668,2.56,2.56,0,0,0,1.2-1.306C377.82,248.754,373.055,244.983,368.676,242.207Zm-6.064-20.8,1.432,1.4-1.284,1.306c-.46-.49-.935-.95-1.433-1.388Zm-8.44-6.161,2.509,1.077-1.136,2.65a20.84,20.84,0,0,0-2.561-.965Zm-13.116-.972,3.34-.52.519,3.31c-.675.037-1.351.119-2.026.223-.446.067-.884.156-1.321.252Zm1.989,4.528c.022-.007.052-.007.074-.015s.067-.007.1-.015.045-.007.067-.007a20.917,20.917,0,0,1,19.418,7.594,10.941,10.941,0,0,0-3.37-.141c-1.922.3-5.916.928-8.581-.156a26.4,26.4,0,0,0-11.127-1.871,10.129,10.129,0,0,1-5.916-1.388A20.869,20.869,0,0,1,343.045,218.8Zm-14.051,8.96a20.87,20.87,0,0,1,4.283-4.632,10.347,10.347,0,0,0,6.369,1.566,25.765,25.765,0,0,1,10.911,1.841c2.8,1.128,6.888.49,8.855.186a11.594,11.594,0,0,1,3.748.23v.007a20.321,20.321,0,0,1,2.88,5.337c-1.536.334-5.107.987-7.133.163-2.39-.972-5.6-.817-9.805.475-3.333,1.017-9.07-.557-12.478-2.591-2.568-1.544-6.725-1.069-8.759-.713A19.849,19.849,0,0,1,328.993,227.762Zm-1.447,2.449c.007-.007.015-.007.03-.007,1.789-.342,6.22-.972,8.788.571,3.5,2.093,9.427,3.7,12.886,2.642,4.1-1.254,7.193-1.418,9.464-.49a11.961,11.961,0,0,0,5.723.185c.705-.111,1.329-.238,1.767-.341a20.405,20.405,0,0,1,.861,3.481,20.762,20.762,0,0,1,.163,5.211l-.008.067c-.03.312-.059.623-.1.935a20.891,20.891,0,0,1-1.67,5.678h-.03a6.371,6.371,0,0,1-4.253-1.67c-2.435-2.227-14.786-1.893-16.3-1.114a3.938,3.938,0,0,1-.453.193c-.008,0-.015.007-.022.007h-.008c-.1-.037-.208-.082-.312-.119-2.687-1.039-5.352-2.16-7.942-3.348a4.016,4.016,0,0,0,.1-1.781,4.3,4.3,0,0,0-3.459-3.563,4.2,4.2,0,0,0-1.106-.052c-.111.007-.223.022-.334.037a1.777,1.777,0,0,0-.2.037,1.679,1.679,0,0,0-.208.052.2.2,0,0,0-.089.022,3.537,3.537,0,0,0-.393.133,3.193,3.193,0,0,0-.6.29,4.444,4.444,0,0,0-1.2,1.061.007.007,0,0,1-.007-.007c-.015.007-.022.007-.015.015-.52-.282-1.032-.579-1.536-.868-.319-.186-.631-.371-.935-.549-.193-.111-.378-.23-.564-.341v-.007a15.569,15.569,0,0,1,.3-1.641,7.5,7.5,0,0,1,.2-.809,3.633,3.633,0,0,1,.111-.408c.037-.134.074-.267.119-.4.074-.267.163-.527.26-.787.119-.341.252-.69.393-1.032s.289-.683.453-1.01A1.878,1.878,0,0,1,327.546,230.211Zm7.126,11.587v.015l-.178.364a2.776,2.776,0,0,1-5.248-.772,2.87,2.87,0,0,1,.052-1.1,1.289,1.289,0,0,1,.074-.238.027.027,0,0,1,.007-.022.552.552,0,0,1,.037-.1,2.1,2.1,0,0,1,.119-.267.468.468,0,0,1,.06-.1,2.7,2.7,0,0,1,1.373-1.18,1.524,1.524,0,0,1,.408-.126.749.749,0,0,1,.186-.045h.03a2.357,2.357,0,0,1,.757-.007.833.833,0,0,1,.23.037,1.5,1.5,0,0,1,.193.052,1.4,1.4,0,0,1,.186.059.353.353,0,0,1,.052.022,1.023,1.023,0,0,1,.208.089,1.383,1.383,0,0,1,.178.1c.089.052.178.111.26.163a2.694,2.694,0,0,1,1.114,1.8A2.656,2.656,0,0,1,334.672,241.8Zm-17.481-13.264c.171-.446.839-.839,2.116-1.039a26.121,26.121,0,0,1,7.772.4,22.606,22.606,0,0,0-2.9,7.8C318.438,232,316.805,229.536,317.191,228.534Zm8.432,14.207a21.227,21.227,0,0,1-.215-4.5c.809.49,1.648.965,2.494,1.433a.026.026,0,0,0-.008.022c-.03.1-.059.193-.081.3s-.045.208-.06.319a1.582,1.582,0,0,0-.037.327c-.007.1-.015.215-.015.319a4.205,4.205,0,0,0,.052.676,4.283,4.283,0,0,0,5.322,3.489,2.984,2.984,0,0,0,.438-.141,3.131,3.131,0,0,0,.364-.156,2.822,2.822,0,0,0,.386-.215,1.676,1.676,0,0,0,.267-.178,3.7,3.7,0,0,0,.416-.349,3.333,3.333,0,0,0,.312-.334.563.563,0,0,0,.089-.1c.03-.037.052-.067.074-.1a.134.134,0,0,0,.037-.052c.008-.015.022-.037.03-.052,2.041.943,4.142,1.841,6.265,2.687a.093.093,0,0,0-.045.008h-.015a21.785,21.785,0,0,1-6.8-.238,17.969,17.969,0,0,0-8.306.646A21.361,21.361,0,0,1,325.624,242.741Zm23.946,17.466a20.988,20.988,0,0,1-21.014-9.612,11.437,11.437,0,0,0,5.99-.052c1.849-.534,4.32.178,6.94.928,2.873.824,5.842,1.67,8.7,1.225,4.194-.653,7.727,2.152,9.026,3.355A20.91,20.91,0,0,1,349.569,260.207Zm10.043-4.483c-1.321-1.254-5-4.231-9.509-3.526-2.746.43-5.656-.408-8.477-1.21-2.694-.772-5.233-1.5-7.222-.935a11.161,11.161,0,0,1-6.235-.1,20.05,20.05,0,0,1-1.4-2.932,17.718,17.718,0,0,1,8.031-.623,22.206,22.206,0,0,0,7.868.111h.037c.282.119.535.23.817.341a123.173,123.173,0,0,0,19.136,5.79A20.922,20.922,0,0,1,359.612,255.723Zm4.075-4.431a.027.027,0,0,1-.022-.008c0,.008,0,.008-.008.008a118.375,118.375,0,0,1-18.586-5.463c.015-.007.022-.007.03-.015,1.426-.742,13.472-1.025,15.722,1.032a6.809,6.809,0,0,0,4.365,1.8h.03A21.766,21.766,0,0,1,363.688,251.292Zm1.5.475c.037-.052.074-.1.111-.163h.008Zm10.147-.794c-.393,1.017-3.266,1.744-10.035.624a.027.027,0,0,0-.022-.007,22.688,22.688,0,0,0,3.11-7.764c.008.008.022.015.03.022,5.166,3.34,6.97,5.663,6.97,6.814A.807.807,0,0,1,375.333,250.973Z" transform="translate(-315.627 -207.461)" fill="#fff"/>
      </g>
      <g id="Grupo_502" data-name="Grupo 502" transform="translate(48.038 34.07)">
        <path id="Trazado_496" data-name="Trazado 496" d="M445.452,308.452c-.037.059-.074.111-.111.163l.119-.163Zm-.111-2.954a21.122,21.122,0,0,1-1.522,2.635.028.028,0,0,0,.022.007,21.773,21.773,0,0,0,1.529-2.643Zm1.9-6.183a20.813,20.813,0,0,1-1.67,5.678h.03a20.892,20.892,0,0,0,1.67-5.678c.045-.312.074-.623.1-.935Z" transform="translate(-443.819 -298.38)" fill="#fff"/>
      </g>
      <g id="Grupo_503" data-name="Grupo 503" transform="translate(13.002 29.81)">
        <path id="Trazado_497" data-name="Trazado 497" d="M350.325,288.064c0,.007.008.007.008.007a4.444,4.444,0,0,1,1.2-1.061A4.12,4.12,0,0,0,350.325,288.064Zm6.139,2.219a2.694,2.694,0,0,0-1.114-1.8,2.822,2.822,0,0,1,1.084,1.8,2.762,2.762,0,0,1-.245,1.633l.178-.364v-.015A2.656,2.656,0,0,0,356.464,290.283Z" transform="translate(-350.325 -287.01)" fill="#fff"/>
      </g>
      <g id="Grupo_504" data-name="Grupo 504" transform="translate(54.002 24.416)">
        <path id="Trazado_498" data-name="Trazado 498" d="M462.947,278.137a2.779,2.779,0,1,1,1.544-.795A2.751,2.751,0,0,1,462.947,278.137Zm-.633-3.991a1.263,1.263,0,0,0,.208,2.51,1.263,1.263,0,0,0-.02-2.525A1.3,1.3,0,0,0,462.314,274.146Z" transform="translate(-459.735 -272.616)" fill="#fff"/>
      </g>
    </g>
    <g id="Grupo_506" data-name="Grupo 506" transform="translate(247.375 303.523)">
      <path id="Trazado_499" data-name="Trazado 499" d="M313.192,481.959h4.9l-11.23-18.146h-5.05l-12.383,18.146h4.191l3.081-4.5h13.709Zm-14.9-6.828,5.609-8.193,5.066,8.193Z" transform="translate(-273.699 -463.811)" fill="#fff"/>
      <path id="Trazado_500" data-name="Trazado 500" d="M354.994,463.812l10.285,15.022,9.289-15.022h4.9l-11.23,18.146h-5.05L350.8,463.812Z" transform="translate(-312.074 -463.81)" fill="#fff"/>
      <path id="Trazado_501" data-name="Trazado 501" d="M451.908,466.139v-2.327H433.791v18.146h18.117v-2.327H438.124v-5.583H449.05v-2.327H438.124v-5.583Z" transform="translate(-363.965 -463.811)" fill="#fff"/>
      <path id="Trazado_502" data-name="Trazado 502" d="M505.369,474.046h.22a5.118,5.118,0,1,0-.05-10.237h-14.2v18.146h4.333v-7.91h4.89l6.773,7.826h4.974Zm-9.693-2.264v-5.645h7.783a2.822,2.822,0,1,1,0,5.645Z" transform="translate(-399.95 -463.808)" fill="#fff"/>
      <path id="Trazado_503" data-name="Trazado 503" d="M256.934,463.812s-.01,9.823-.01,15.67c-.066,5.554-7.906,4.134-9.468,3.6V485.5c1.351.317,13.813,2.862,13.813-5.909v-15.78Z" transform="translate(-247.456 -463.81)" fill="#fff"/>
    </g>
  </g>
</svg>
